name ./resultDataOpenSim/trcMotMarkerGrf/sub10/grf-13-04.mot
datacolumns 19
datarows 10
range 0.47600000 0.51200000
endheader

                time	     ground_force_vx	     ground_force_vy	     ground_force_vz	     ground_force_px	     ground_force_py	     ground_force_pz	   l_ground_force_vx	   l_ground_force_vy	   l_ground_force_vz	   l_ground_force_px	   l_ground_force_py	   l_ground_force_pz	     ground_torque_x	     ground_torque_y	     ground_torque_z	   l_ground_torque_x	   l_ground_torque_y	   l_ground_torque_z	
          0.47600000	         29.36019991	        453.05789609	        -17.86801414	         -0.73202696	          0.00000000	         -0.06250324	          0.00000000	          0.00000000	          0.00000000	          0.00000000	          0.00000000	          0.00000000	          0.00000000	          3.04840871	          0.00000000	          0.00000000	          0.00000000	          0.00000000	
          0.48000000	         30.27736907	        459.25501677	        -18.66974654	         -0.73097201	          0.00000000	         -0.06251113	          0.00000000	          0.00000000	          0.00000000	          0.00000000	          0.00000000	          0.00000000	          0.00000000	          3.08748352	          0.00000000	          0.00000000	          0.00000000	          0.00000000	
          0.48400000	         31.42534075	        465.83800776	        -19.77226697	         -0.72991503	          0.00000000	         -0.06251556	          0.00000000	          0.00000000	          0.00000000	          0.00000000	          0.00000000	          0.00000000	          0.00000000	          3.10622406	          0.00000000	          0.00000000	          0.00000000	          0.00000000	
          0.48800000	         33.21492700	        472.78365234	        -21.09649583	         -0.72890320	          0.00000000	         -0.06251634	          0.00000000	          0.00000000	          0.00000000	          0.00000000	          0.00000000	          0.00000000	          0.00000000	          3.12340551	          0.00000000	          0.00000000	          0.00000000	          0.00000000	
          0.49200000	         35.87628215	        480.08031221	        -22.52395762	         -0.72796802	          0.00000000	         -0.06251370	          0.00000000	          0.00000000	          0.00000000	          0.00000000	          0.00000000	          0.00000000	          0.00000000	          3.15786952	          0.00000000	          0.00000000	          0.00000000	          0.00000000	
          0.49600000	         39.39892682	        487.71827338	        -23.92529177	         -0.72710108	          0.00000000	         -0.06251342	          0.00000000	          0.00000000	          0.00000000	          0.00000000	          0.00000000	          0.00000000	          0.00000000	          3.22392378	          0.00000000	          0.00000000	          0.00000000	          0.00000000	
          0.50000000	         43.55371133	        495.69781173	        -25.19037679	         -0.72625261	          0.00000000	         -0.06252548	          0.00000000	          0.00000000	          0.00000000	          0.00000000	          0.00000000	          0.00000000	          0.00000000	          3.32781481	          0.00000000	          0.00000000	          0.00000000	          0.00000000	
          0.50400000	         47.97535759	        504.06685534	        -26.25291942	         -0.72536903	          0.00000000	         -0.06255722	          0.00000000	          0.00000000	          0.00000000	          0.00000000	          0.00000000	          0.00000000	          0.00000000	          3.46605568	          0.00000000	          0.00000000	          0.00000000	          0.00000000	
          0.50800000	         52.26579019	        512.96348047	        -27.09785214	         -0.72442842	          0.00000000	         -0.06261091	          0.00000000	          0.00000000	          0.00000000	          0.00000000	          0.00000000	          0.00000000	          0.00000000	          3.62601726	          0.00000000	          0.00000000	          0.00000000	          0.00000000	
          0.51200000	         56.08782250	        522.62340090	        -27.75673999	         -0.72342902	          0.00000000	         -0.06268006	          0.00000000	          0.00000000	          0.00000000	          0.00000000	          0.00000000	          0.00000000	          0.00000000	          3.78857716	          0.00000000	          0.00000000	          0.00000000	          0.00000000	
